REM DIRINDEX 1\2,1\3,1\4,1\5
REM DIRNAME cjc093,folder01,folder02,folder03,folder04
TITLE ""
FILE "Round-11-252-253.mp3" MP3
  TRACK 01 AUDIO
    TITLE "0:"
    INDEX 01 00:00:00
  TRACK 02 AUDIO
    TITLE "2:cjc093_2822"
    INDEX 01 00:00:05
  TRACK 03 AUDIO
    TITLE "0:"
    INDEX 01 00:01:32
  TRACK 04 AUDIO
    TITLE "3:cjc093_2823"
    INDEX 01 00:02:04
  TRACK 05 AUDIO
    TITLE "0:"
    INDEX 01 00:04:13
  TRACK 06 AUDIO
    TITLE "4:cjc093_2824"
    INDEX 01 00:04:19
  TRACK 07 AUDIO
    TITLE "0:"
    INDEX 01 00:07:19
  TRACK 08 AUDIO
    TITLE "2:cjc093_2825"
    INDEX 01 00:08:24
  TRACK 09 AUDIO
    TITLE "0:"
    INDEX 01 00:09:28
  TRACK 10 AUDIO
    TITLE "3:cjc093_2826"
    INDEX 01 00:09:65
  TRACK 11 AUDIO
    TITLE "0:"
    INDEX 01 00:11:72
  TRACK 12 AUDIO
    TITLE "4:cjc093_2827"
    INDEX 01 00:12:22
  TRACK 13 AUDIO
    TITLE "0:"
    INDEX 01 00:14:60
  TRACK 14 AUDIO
    TITLE "2:cjc093_2828"
    INDEX 01 00:15:64
  TRACK 15 AUDIO
    TITLE "0:"
    INDEX 01 00:17:02
  TRACK 16 AUDIO
    TITLE "3:cjc093_2829"
    INDEX 01 00:17:29
  TRACK 17 AUDIO
    TITLE "0:"
    INDEX 01 00:18:23
  TRACK 18 AUDIO
    TITLE "4:cjc093_2830"
    INDEX 01 00:18:44
  TRACK 19 AUDIO
    TITLE "0:"
    INDEX 01 00:22:66
  TRACK 20 AUDIO
    TITLE "2:cjc093_2831"
    INDEX 01 00:24:02
  TRACK 21 AUDIO
    TITLE "0:"
    INDEX 01 00:25:19
  TRACK 22 AUDIO
    TITLE "3:cjc093_2832"
    INDEX 01 00:25:46
  TRACK 23 AUDIO
    TITLE "0:"
    INDEX 01 00:27:59
  TRACK 24 AUDIO
    TITLE "4:cjc093_2833"
    INDEX 01 00:27:65
  TRACK 25 AUDIO
    TITLE "0:"
    INDEX 01 00:30:71
  TRACK 26 AUDIO
    TITLE "2:cjc093_2834"
    INDEX 01 00:32:03
  TRACK 27 AUDIO
    TITLE "0:"
    INDEX 01 00:33:26
  TRACK 28 AUDIO
    TITLE "3:cjc093_2835"
    INDEX 01 00:33:69
  TRACK 29 AUDIO
    TITLE "0:"
    INDEX 01 00:36:01
  TRACK 30 AUDIO
    TITLE "4:cjc093_2836"
    INDEX 01 00:36:36
  TRACK 31 AUDIO
    TITLE "0:"
    INDEX 01 00:40:46
  TRACK 32 AUDIO
    TITLE "4:cjc093_2837"
    INDEX 01 00:41:06
  TRACK 33 AUDIO
    TITLE "0:"
    INDEX 01 00:45:67
  TRACK 34 AUDIO
    TITLE "3:cjc093_2838"
    INDEX 01 00:47:03
  TRACK 35 AUDIO
    TITLE "0:"
    INDEX 01 00:48:40
  TRACK 36 AUDIO
    TITLE "4:cjc093_2839"
    INDEX 01 00:49:06
  TRACK 37 AUDIO
    TITLE "0:"
    INDEX 01 00:54:01
  TRACK 38 AUDIO
    TITLE "2:cjc093_2840"
    INDEX 01 00:55:10
  TRACK 39 AUDIO
    TITLE "0:"
    INDEX 01 00:56:16
  TRACK 40 AUDIO
    TITLE "3:cjc093_2841"
    INDEX 01 00:56:39
  TRACK 41 AUDIO
    TITLE "0:"
    INDEX 01 00:58:30
  TRACK 42 AUDIO
    TITLE "4:cjc093_2842"
    INDEX 01 00:58:52
  TRACK 43 AUDIO
    TITLE "0:"
    INDEX 01 01:01:03
  TRACK 44 AUDIO
    TITLE "3:cjc093_2843"
    INDEX 01 01:02:08
  TRACK 45 AUDIO
    TITLE "0:"
    INDEX 01 01:02:65
  TRACK 46 AUDIO
    TITLE "4:cjc093_2844"
    INDEX 01 01:03:45
  TRACK 47 AUDIO
    TITLE "0:"
    INDEX 01 01:05:71
  TRACK 48 AUDIO
    TITLE "2:cjc093_2845"
    INDEX 01 01:07:06
  TRACK 49 AUDIO
    TITLE "0:"
    INDEX 01 01:08:13
  TRACK 50 AUDIO
    TITLE "3:cjc093_2846"
    INDEX 01 01:08:60
  TRACK 51 AUDIO
    TITLE "0:"
    INDEX 01 01:11:15
  TRACK 52 AUDIO
    TITLE "4:cjc093_2847"
    INDEX 01 01:11:27
  TRACK 53 AUDIO
    TITLE "0:"
    INDEX 01 01:13:16
  TRACK 54 AUDIO
    TITLE "2:cjc093_2848"
    INDEX 01 01:14:25
  TRACK 55 AUDIO
    TITLE "0:"
    INDEX 01 01:15:46
  TRACK 56 AUDIO
    TITLE "3:cjc093_2849"
    INDEX 01 01:15:64
  TRACK 57 AUDIO
    TITLE "0:"
    INDEX 01 01:17:33
  TRACK 58 AUDIO
    TITLE "4:cjc093_2850"
    INDEX 01 01:17:61
  TRACK 59 AUDIO
    TITLE "0:"
    INDEX 01 01:20:57
